<?xml version="1.0" ?><svg id="Layer_1" style="enable-background:new 0 0 64 64;" version="1.1" viewBox="0 0 64 64" xml:space="preserve" xmlns="http://www.w3.org/2000/svg" xmlns:xlink="http://www.w3.org/1999/xlink"><style type="text/css">
	.st0{fill:none;stroke:#1A1A1A;stroke-width:2;stroke-linecap:round;stroke-linejoin:round;stroke-miterlimit:10;}
	.st1{fill:#1A1A1A;}
	.st2{fill:none;stroke:#000000;stroke-width:2;stroke-linecap:round;stroke-linejoin:round;stroke-miterlimit:10;}
	.st3{fill:none;stroke:#1A1A1A;stroke-width:2;stroke-linecap:round;stroke-linejoin:round;}
	.st4{fill:none;stroke:#1A1A1A;stroke-width:2;stroke-linecap:round;stroke-linejoin:round;stroke-dasharray:5.8,5.8;}
</style><g><g><rect class="st0" height="9" transform="matrix(0.7071 -0.7071 0.7071 0.7071 -14.3277 21.5729)" width="4" x="16.9" y="23.6"/><rect class="st0" height="4" transform="matrix(0.7071 -0.7071 0.7071 0.7071 -11.2922 23.2444)" width="5" x="19.9" y="23.3"/><rect class="st0" height="10" transform="matrix(0.7071 -0.7071 0.7071 0.7071 -5.9889 25.4411)" width="10" x="22.7" y="14.9"/><path class="st0" d="M27.7,12.9l2.8-2.8c2.7-2.7,7.2-2.7,9.9,0l0,0h0c-2.7,0-5.3,1.1-7.2,3l-2.7,2.7"/><rect class="st0" height="32" transform="matrix(0.7071 -0.7071 0.7071 0.7071 -12.1396 40.2904)" width="6" x="39.6" y="18.8"/></g><line class="st0" x1="10" x2="14" y1="37" y2="37"/><line class="st0" x1="12" x2="12" y1="37" y2="54"/></g></svg>